<svg width="48" height="48" viewBox="0 0 48 48" fill="none" xmlns="http://www.w3.org/2000/svg">
<path d="M38.5 40.5C38.5 41.6709 37.4713 43.1638 34.8068 44.4531C32.2467 45.6918 28.6045 46.5 24.5 46.5C20.3955 46.5 16.7533 45.6918 14.1932 44.4531C11.5287 43.1638 10.5 41.6709 10.5 40.5C10.5 39.3291 11.5287 37.8362 14.1932 36.5469C16.7533 35.3082 20.3955 34.5 24.5 34.5C28.6045 34.5 32.2467 35.3082 34.8068 36.5469C37.4713 37.8362 38.5 39.3291 38.5 40.5Z" stroke="#152C5B" stroke-width="3"/>
<path d="M32.5 11.7021C32.5 12.8645 32.1663 15.1653 31.5155 18.0546C30.8733 20.906 29.9485 24.2161 28.8233 27.3541C27.6926 30.5076 26.3852 33.4138 24.9992 35.5026C24.3058 36.5476 23.6318 37.328 23.0012 37.8339C22.3725 38.3383 21.8777 38.5 21.5 38.5C21.128 38.5 20.6548 38.3429 20.0617 37.8501C19.4632 37.3528 18.8284 36.5813 18.1812 35.5401C16.8874 33.4586 15.7015 30.5581 14.6936 27.4039C12.6694 21.0695 11.5 14.162 11.5 11.7021C11.5 7.45431 15.8875 3.5 22 3.5C28.1125 3.5 32.5 7.45431 32.5 11.7021Z" fill="white" stroke="#152C5B" stroke-width="3"/>
<circle cx="22.5" cy="13.5" r="4" stroke="#FF4988" stroke-width="3"/>
</svg>
