<svg width="48" height="48" viewBox="0 0 48 48" fill="none" xmlns="http://www.w3.org/2000/svg">
<circle cx="23.5" cy="28.5" r="7" stroke="#FF4988" stroke-width="3"/>
<mask id="path-2-inside-1" fill="white">
<path fill-rule="evenodd" clip-rule="evenodd" d="M17.9782 9C16.7781 9 15.6935 9.71519 15.2208 10.8182L12.1429 18H5C2.23858 18 0 20.2386 0 23V38C0 40.7614 2.23858 43 5 43H43C45.7614 43 48 40.7614 48 38V23C48 20.2386 45.7614 18 43 18H34.6786L31.3063 10.7367C30.8146 9.67755 29.753 9 28.5853 9H17.9782Z"/>
</mask>
<path d="M15.2208 10.8182L12.4633 9.63649V9.63649L15.2208 10.8182ZM12.1429 18V21H14.121L14.9003 19.1818L12.1429 18ZM34.6786 18L31.9575 19.2633L32.7639 21H34.6786V18ZM31.3063 10.7367L28.5853 12V12L31.3063 10.7367ZM17.9782 12V12V6C15.578 6 13.4088 7.43038 12.4633 9.63649L17.9782 12ZM14.9003 19.1818L17.9782 12L12.4633 9.63649L9.38542 16.8182L14.9003 19.1818ZM5 21H12.1429V15H5V21ZM3 23C3 21.8954 3.89543 21 5 21V15C0.581722 15 -3 18.5817 -3 23H3ZM3 38V23H-3V38H3ZM5 40C3.89543 40 3 39.1046 3 38H-3C-3 42.4183 0.581724 46 5 46V40ZM43 40H5V46H43V40ZM45 38C45 39.1046 44.1046 40 43 40V46C47.4183 46 51 42.4183 51 38H45ZM45 23V38H51V23H45ZM43 21C44.1046 21 45 21.8954 45 23H51C51 18.5817 47.4183 15 43 15V21ZM34.6786 21H43V15H34.6786V21ZM28.5853 12L31.9575 19.2633L37.3996 16.7367L34.0273 9.47333L28.5853 12ZM28.5853 12V12L34.0273 9.47333C33.0439 7.35511 30.9207 6 28.5853 6V12ZM17.9782 12H28.5853V6H17.9782V12Z" fill="#152C5B" mask="url(#path-2-inside-1)"/>
<path d="M42 24L36 24" stroke="#152C5B" stroke-width="2" stroke-linecap="round" stroke-linejoin="round"/>
</svg>
