<svg width="36" height="35" viewBox="0 0 36 35" fill="none" xmlns="http://www.w3.org/2000/svg">
<path d="M16.0979 1.61375C16.6966 -0.228876 19.3034 -0.228877 19.9021 1.61374L22.7148 10.2703C22.9825 11.0943 23.7505 11.6523 24.6169 11.6523H33.7189C35.6564 11.6523 36.4619 14.1315 34.8945 15.2703L27.5308 20.6203C26.8298 21.1296 26.5365 22.0323 26.8043 22.8564L29.6169 31.5129C30.2157 33.3556 28.1067 34.8878 26.5393 33.749L19.1756 28.399C18.4746 27.8897 17.5254 27.8897 16.8244 28.399L9.46074 33.749C7.89331 34.8878 5.78435 33.3556 6.38305 31.5129L9.19573 22.8564C9.46348 22.0323 9.17017 21.1296 8.46919 20.6203L1.1055 15.2703C-0.46193 14.1315 0.343619 11.6523 2.28107 11.6523H11.3831C12.2495 11.6523 13.0175 11.0943 13.2852 10.2703L16.0979 1.61375Z" fill="#FFDA74"/>
</svg>
